<svg width="31" height="44" viewBox="0 0 31 44" fill="none" xmlns="http://www.w3.org/2000/svg">
<g clip-path="url(#clip0_67_54)">
<path fill-rule="evenodd" clip-rule="evenodd" d="M18.648 27.5534L18.677 27.5243L15.8486 24.6959L15.8195 24.725L15.7904 24.6958L12.962 27.5243L12.9911 27.5534L1.13371 39.4108L3.96214 42.2392L15.8195 30.3818L27.6769 42.2392L30.5053 39.4107L18.648 27.5534Z" fill="#DCD8D8"/>
<path fill-rule="evenodd" clip-rule="evenodd" d="M18.648 16.5534L18.677 16.5243L15.8486 13.6959L15.8195 13.725L15.7904 13.6958L12.962 16.5243L12.9911 16.5534L1.13371 28.4108L3.96214 31.2392L15.8195 19.3818L27.6769 31.2392L30.5053 28.4107L18.648 16.5534Z" fill="#C0BFBF"/>
<path fill-rule="evenodd" clip-rule="evenodd" d="M18.648 4.5534L18.677 4.52433L15.8486 1.6959L15.8195 1.72497L15.7904 1.69584L12.962 4.52427L12.9911 4.5534L1.13371 16.4108L3.96214 19.2392L15.8195 7.38183L27.6769 19.2392L30.5053 16.4107L18.648 4.5534Z" fill="#8A8A8A"/>
</g>
<defs>
<clipPath id="clip0_67_54">
<rect width="31" height="44" fill="white"/>
</clipPath>
</defs>
</svg>
